<svg width="101" height="100" viewBox="0 0 101 100" fill="none" xmlns="http://www.w3.org/2000/svg">
<rect x="0.5" width="100" height="100" rx="50" fill="#E0F2FE"/>
<path d="M52.3696 54.7409L60.5007 66.6664M48.6317 54.7409L40.5007 66.6664M53.834 51.9998C53.834 53.8407 52.3416 55.3331 50.5007 55.3331C48.6597 55.3331 47.1673 53.8407 47.1673 51.9998C47.1673 50.1588 48.6597 48.6665 50.5007 48.6665C52.3416 48.6665 53.834 50.1588 53.834 51.9998ZM59.0815 37.5536L39.441 42.8162C38.9902 42.937 38.7648 42.9974 38.6161 43.1313C38.4854 43.2491 38.3952 43.4052 38.3586 43.5773C38.317 43.773 38.3774 43.9984 38.4982 44.4492L39.9649 49.9228C40.0857 50.3736 40.1461 50.599 40.2799 50.7477C40.3977 50.8785 40.5538 50.9686 40.726 51.0052C40.9216 51.0468 41.1471 50.9864 41.5979 50.8656L61.2384 45.603L59.0815 37.5536ZM66.8213 45.8325C65.0181 46.3156 64.1165 46.5572 63.3337 46.3909C62.6452 46.2445 62.0206 45.8839 61.5496 45.3608C61.0141 44.7661 60.7725 43.8645 60.2893 42.0612L60.0305 41.0953C59.5474 39.2921 59.3058 38.3905 59.4722 37.6077C59.6185 36.9191 59.9791 36.2946 60.5022 35.8236C61.0969 35.2881 61.9985 35.0465 63.8018 34.5633C64.2526 34.4425 64.478 34.3821 64.6737 34.4237C64.8458 34.4603 65.0019 34.5505 65.1197 34.6813C65.2536 34.8299 65.314 35.0553 65.4348 35.5061L67.7641 44.1995C67.8849 44.6503 67.9453 44.8757 67.9037 45.0714C67.8671 45.2435 67.777 45.3997 67.6462 45.5174C67.4975 45.6513 67.2721 45.7117 66.8213 45.8325ZM36.3369 50.5498L38.5907 49.9459C39.0415 49.8251 39.2669 49.7647 39.4156 49.6309C39.5464 49.5131 39.6365 49.357 39.6731 49.1848C39.7147 48.9891 39.6543 48.7637 39.5335 48.3129L38.9296 46.0591C38.8088 45.6083 38.7484 45.3829 38.6145 45.2342C38.4968 45.1034 38.3406 45.0133 38.1685 44.9767C37.9728 44.9351 37.7474 44.9955 37.2966 45.1163L35.0428 45.7202C34.592 45.841 34.3666 45.9014 34.2179 46.0353C34.0871 46.153 33.997 46.3092 33.9604 46.4813C33.9188 46.677 33.9792 46.9024 34.1 47.3532L34.7039 49.607C34.8247 50.0578 34.8851 50.2832 35.0189 50.4319C35.1367 50.5627 35.2928 50.6528 35.465 50.6894C35.6607 50.731 35.8861 50.6706 36.3369 50.5498Z" stroke="#3B82F6" stroke-width="3.33333" stroke-linecap="round" stroke-linejoin="round"/>
</svg>
