<svg width="101" height="100" viewBox="0 0 101 100" fill="none" xmlns="http://www.w3.org/2000/svg">
<rect x="0.666748" width="100" height="100" rx="50" fill="#E0F2FE"/>
<path d="M67.3333 45H34M54 59.1667L58.1667 55L54 50.8333M47.3333 50.8333L43.1667 55L47.3333 59.1667M34 43L34 57C34 59.8003 34 61.2004 34.545 62.2699C35.0243 63.2108 35.7892 63.9757 36.73 64.455C37.7996 65 39.1997 65 42 65H59.3333C62.1336 65 63.5337 65 64.6033 64.455C65.5441 63.9757 66.309 63.2108 66.7884 62.27C67.3333 61.2004 67.3333 59.8003 67.3333 57V43C67.3333 40.1997 67.3333 38.7996 66.7884 37.73C66.309 36.7892 65.5441 36.0243 64.6033 35.545C63.5337 35 62.1336 35 59.3333 35L42 35C39.1997 35 37.7996 35 36.73 35.545C35.7892 36.0243 35.0243 36.7892 34.545 37.73C34 38.7996 34 40.1997 34 43Z" stroke="#3B82F6" stroke-width="3.33333" stroke-linecap="round" stroke-linejoin="round"/>
</svg>
