<svg width="101" height="100" viewBox="0 0 101 100" fill="none" xmlns="http://www.w3.org/2000/svg">
<rect x="0.833252" width="100" height="100" rx="50" fill="#E0F2FE"/>
<path d="M44.1665 65V41.6667C44.1665 40.1167 44.1665 39.3417 44.3369 38.7059C44.7992 36.9804 46.1469 35.6327 47.8724 35.1704C48.5082 35 49.2832 35 50.8332 35C52.3831 35 53.1581 35 53.7939 35.1704C55.5194 35.6327 56.8671 36.9804 57.3295 38.7059C57.4998 39.3417 57.4998 40.1167 57.4998 41.6667V65M39.4998 65H62.1665C64.0333 65 64.9668 65 65.6798 64.6367C66.307 64.3171 66.8169 63.8072 67.1365 63.18C67.4998 62.4669 67.4998 61.5335 67.4998 59.6667V47C67.4998 45.1332 67.4998 44.1997 67.1365 43.4867C66.8169 42.8595 66.307 42.3496 65.6798 42.03C64.9668 41.6667 64.0333 41.6667 62.1665 41.6667H39.4998C37.633 41.6667 36.6996 41.6667 35.9865 42.03C35.3593 42.3496 34.8494 42.8595 34.5298 43.4867C34.1665 44.1997 34.1665 45.1332 34.1665 47V59.6667C34.1665 61.5335 34.1665 62.4669 34.5298 63.18C34.8494 63.8072 35.3593 64.3171 35.9865 64.6367C36.6996 65 37.633 65 39.4998 65Z" stroke="#3B82F6" stroke-width="3.33333" stroke-linecap="round" stroke-linejoin="round"/>
</svg>
