<svg width="101" height="100" viewBox="0 0 101 100" fill="none" xmlns="http://www.w3.org/2000/svg">
<rect x="0.5" width="100" height="100" rx="50" fill="#E0F2FE"/>
<path d="M50.4993 50.0002H50.5159M56.3918 55.8928C48.5813 63.7033 39.6115 67.3967 36.3571 64.1424C33.1028 60.888 36.7962 51.9182 44.6067 44.1077C52.4172 36.2972 61.387 32.6037 64.6414 35.8581C67.8958 39.1125 64.2023 48.0823 56.3918 55.8928ZM56.3918 44.1074C64.2022 51.9179 67.8957 60.8877 64.6413 64.1421C61.387 67.3964 52.4171 63.703 44.6066 55.8925C36.7962 48.082 33.1027 39.1122 36.3571 35.8578C39.6114 32.6034 48.5813 36.2969 56.3918 44.1074ZM51.3326 50.0002C51.3326 50.4605 50.9595 50.8336 50.4993 50.8336C50.039 50.8336 49.6659 50.4605 49.6659 50.0002C49.6659 49.54 50.039 49.1669 50.4993 49.1669C50.9595 49.1669 51.3326 49.54 51.3326 50.0002Z" stroke="#3B82F6" stroke-width="3.33333" stroke-linecap="round" stroke-linejoin="round"/>
</svg>
